<svg width="208" height="38" viewBox="0 0 208 38" fill="none" xmlns="http://www.w3.org/2000/svg">
<path d="M61.2379 34.6825V11.207H52.184V4.91587H78.1188V11.207H69.0649V34.6825H61.2379Z" fill="#2196F3"/>
<path d="M86.0979 35.147C84.2363 35.147 82.6004 34.7107 81.1901 33.8381C79.7799 32.9374 78.6658 31.6425 77.8478 29.9537C77.0581 28.2648 76.6632 26.2662 76.6632 23.9581C76.6632 21.6218 77.0581 19.6233 77.8478 17.9625C78.6658 16.2737 79.7799 14.9929 81.1901 14.1203C82.6004 13.2196 84.2363 12.7692 86.0979 12.7692C87.762 12.7692 89.2569 13.1633 90.5825 13.9514C91.9364 14.7396 92.8249 15.767 93.248 17.0337H92.8249L93.2903 13.2337H100.525C100.44 14.1907 100.356 15.1618 100.271 16.147C100.215 17.1322 100.186 18.1033 100.186 19.0603V34.6825H92.7402L92.6556 31.0514H93.1633C92.7403 32.2899 91.8518 33.2892 90.4979 34.0492C89.1723 34.7811 87.7056 35.147 86.0979 35.147ZM88.5094 29.5737C89.7787 29.5737 90.8082 29.1374 91.5979 28.2648C92.3877 27.364 92.7826 25.9285 92.7826 23.9581C92.7826 21.9877 92.3877 20.5662 91.5979 19.6937C90.8082 18.7929 89.7787 18.3425 88.5094 18.3425C87.2402 18.3425 86.2107 18.7929 85.421 19.6937C84.6312 20.5662 84.2363 21.9877 84.2363 23.9581C84.2363 25.9285 84.6171 27.364 85.3786 28.2648C86.1684 29.1374 87.212 29.5737 88.5094 29.5737Z" fill="#2196F3"/>
<path d="M104.864 34.6825V19.1025C104.864 18.1174 104.836 17.1322 104.779 16.147C104.723 15.1618 104.638 14.1907 104.525 13.2337H111.802L112.606 19.8203H111.464C111.746 18.2159 112.197 16.8929 112.818 15.8514C113.438 14.8099 114.214 14.0359 115.145 13.5292C116.075 13.0225 117.175 12.7692 118.445 12.7692C119.037 12.7692 119.474 12.7974 119.756 12.8537C120.067 12.8818 120.391 12.9662 120.729 13.107V19.6937C120.024 19.384 119.46 19.187 119.037 19.1025C118.614 19.0181 118.064 18.9759 117.387 18.9759C116.231 18.9759 115.286 19.187 114.552 19.6092C113.819 20.0033 113.283 20.6225 112.945 21.467C112.634 22.3114 112.479 23.3951 112.479 24.7181V34.6825H104.864Z" fill="#2196F3"/>
<path d="M133.968 35.147C130.076 35.147 127.044 34.1477 124.872 32.1492C122.729 30.1507 121.657 27.4062 121.657 23.9159C121.657 21.7485 122.108 19.8203 123.011 18.1314C123.913 16.4425 125.183 15.1337 126.818 14.2048C128.454 13.2477 130.372 12.7692 132.572 12.7692C134.744 12.7692 136.549 13.2477 137.988 14.2048C139.454 15.1337 140.554 16.4285 141.288 18.0892C142.021 19.7218 142.388 21.6218 142.388 23.7892V25.3937H127.961V21.847H136.845L136.126 22.4381C136.126 20.8337 135.816 19.6514 135.195 18.8914C134.603 18.1033 133.757 17.7092 132.657 17.7092C131.388 17.7092 130.415 18.1877 129.738 19.1448C129.089 20.0737 128.765 21.4811 128.765 23.367V24.127C128.765 26.0129 129.23 27.3922 130.161 28.2648C131.092 29.1374 132.431 29.5737 134.18 29.5737C135.308 29.5737 136.366 29.447 137.353 29.1937C138.369 28.9403 139.328 28.5322 140.23 27.9692L142.176 32.867C141.104 33.5988 139.863 34.1618 138.453 34.5559C137.043 34.9499 135.548 35.147 133.968 35.147Z" fill="#2196F3"/>
<path d="M147.628 34.6825V18.7648H143.608V13.2337H149.743L147.628 15.1759V12.2625C147.628 9.30698 148.403 7.09735 149.955 5.63365C151.506 4.16995 153.847 3.43809 156.978 3.43809C157.683 3.43809 158.43 3.48032 159.22 3.56476C160.01 3.6492 160.715 3.81809 161.336 4.07143V9.81365C160.941 9.67291 160.489 9.57439 159.982 9.51809C159.474 9.43365 158.98 9.39143 158.501 9.39143C157.937 9.39143 157.387 9.48995 156.851 9.68698C156.343 9.85587 155.92 10.1655 155.582 10.6159C155.271 11.0662 155.116 11.6855 155.116 12.4737V14.3737L154.059 13.2337H160.32V18.7648H155.159V34.6825H147.628Z" fill="#2196F3"/>
<path d="M171.169 35.147C169.307 35.147 167.671 34.7107 166.261 33.8381C164.851 32.9374 163.736 31.6425 162.918 29.9537C162.129 28.2648 161.734 26.2662 161.734 23.9581C161.734 21.6218 162.129 19.6233 162.918 17.9625C163.736 16.2737 164.851 14.9929 166.261 14.1203C167.671 13.2196 169.307 12.7692 171.169 12.7692C172.833 12.7692 174.328 13.1633 175.653 13.9514C177.007 14.7396 177.895 15.767 178.319 17.0337H177.896L178.361 13.2337H185.596C185.511 14.1907 185.426 15.1618 185.342 16.147C185.285 17.1322 185.257 18.1033 185.257 19.0603V34.6825H177.811L177.726 31.0514H178.234C177.811 32.2899 176.922 33.2892 175.569 34.0492C174.243 34.7811 172.776 35.147 171.169 35.147ZM173.58 29.5737C174.849 29.5737 175.879 29.1374 176.669 28.2648C177.458 27.364 177.853 25.9285 177.853 23.9581C177.853 21.9877 177.458 20.5662 176.669 19.6937C175.879 18.7929 174.849 18.3425 173.58 18.3425C172.311 18.3425 171.281 18.7929 170.492 19.6937C169.702 20.5662 169.307 21.9877 169.307 23.9581C169.307 25.9285 169.688 27.364 170.449 28.2648C171.239 29.1374 172.283 29.5737 173.58 29.5737Z" fill="#2196F3"/>
<path d="M198.185 35.147C196.182 35.147 194.363 34.9499 192.727 34.5559C191.119 34.1337 189.751 33.5707 188.623 32.867L190.442 27.9692C191.542 28.5885 192.769 29.0951 194.123 29.4892C195.505 29.8833 196.873 30.0803 198.227 30.0803C199.299 30.0803 200.074 29.9255 200.554 29.6159C201.061 29.2781 201.315 28.8418 201.315 28.307C201.315 27.8848 201.16 27.547 200.85 27.2937C200.54 27.0403 200.074 26.8574 199.454 26.7448L194.885 25.9425C193.079 25.6048 191.669 24.9433 190.654 23.9581C189.667 22.9448 189.173 21.6359 189.173 20.0314C189.173 18.5677 189.568 17.3011 190.358 16.2314C191.147 15.1337 192.276 14.2892 193.742 13.6981C195.209 13.0788 196.944 12.7692 198.946 12.7692C200.582 12.7692 202.133 12.9522 203.6 13.3181C205.095 13.684 206.392 14.2611 207.492 15.0492L205.546 19.8203C204.672 19.2292 203.642 18.7507 202.458 18.3848C201.301 17.9907 200.215 17.7937 199.2 17.7937C197.987 17.7937 197.127 17.9766 196.619 18.3425C196.111 18.6803 195.858 19.1025 195.858 19.6092C195.858 20.0033 195.999 20.3411 196.281 20.6225C196.563 20.8759 197.014 21.0588 197.635 21.1714L202.204 21.9736C204.065 22.2833 205.49 22.9307 206.477 23.9159C207.492 24.8729 208 26.1818 208 27.8425C208 29.3907 207.577 30.7137 206.731 31.8114C205.913 32.8811 204.77 33.7114 203.304 34.3025C201.837 34.8655 200.131 35.147 198.185 35.147Z" fill="#2196F3"/>
<path d="M28.558 3.16667H5.28851V7.38889H28.558C29.7214 7.38889 30.6734 8.33889 30.6734 9.5V30.6111H17.9809V34.8333H34.9042V9.5C34.9042 6.01667 32.0484 3.16667 28.558 3.16667Z" fill="#90CAF9"/>
<path d="M10.577 0H0V10.5556H10.577V0Z" fill="#2196F3"/>
<path d="M38.0773 11.6111H27.5003V22.1667H38.0773V11.6111Z" fill="#2196F3"/>
<path d="M21.154 27.4444H10.577V38H21.154V27.4444Z" fill="#2196F3"/>
<path d="M21.154 10.5556C24.0748 10.5556 26.4425 8.19261 26.4425 5.27778C26.4425 2.36294 24.0748 0 21.154 0C18.2333 0 15.8655 2.36294 15.8655 5.27778C15.8655 8.19261 18.2333 10.5556 21.154 10.5556Z" fill="#2196F3"/>
<path d="M32.7888 38C35.7095 38 38.0773 35.6371 38.0773 32.7222C38.0773 29.8074 35.7095 27.4444 32.7888 27.4444C29.868 27.4444 27.5003 29.8074 27.5003 32.7222C27.5003 35.6371 29.868 38 32.7888 38Z" fill="#2196F3"/>
</svg>
