<svg xmlns="http://www.w3.org/2000/svg" xmlns:xlink="http://www.w3.org/1999/xlink">
  <defs>
    <svg fill="none" xmlns="http://www.w3.org/2000/svg" stroke="currentColor" viewBox="0 0 24 24" id="dashboard">
      <path xmlns="http://www.w3.org/2000/svg" stroke="currentColor" stroke-width="2" d="M4 5a1 1 0 011-1h4a1 1 0 011 1v5a1 1 0 01-1 1H5a1 1 0 01-1-1V5zm10 0a1 1 0 011-1h4a1 1 0 011 1v2a1 1 0 01-1 1h-4a1 1 0 01-1-1V5zM4 16a1 1 0 011-1h4a1 1 0 011 1v3a1 1 0 01-1 1H5a1 1 0 01-1-1v-3zm10-3a1 1 0 011-1h4a1 1 0 011 1v6a1 1 0 01-1 1h-4a1 1 0 01-1-1v-6z"/>
    </svg>
  </defs>
</svg>
