<svg xmlns="http://www.w3.org/2000/svg" xmlns:xlink="http://www.w3.org/1999/xlink">
  <defs>
    <svg id="setting" xmlns="http://www.w3.org/2000/svg" width="24" height="24" viewBox="0 0 24 24">
      <path fill="currentColor" d="M19.9 12.66a1 1 0 0 1 0-1.32l1.28-1.44a1 1 0 0 0 .12-1.17l-2-3.46a1 1 0 0 0-1.07-.48l-1.88.38a1 1 0 0 1-1.15-.66l-.61-1.83a1 1 0 0 0-.95-.68h-4a1 1 0 0 0-1 .68l-.56 1.83a1 1 0 0 1-1.15.66L5 4.79a1 1 0 0 0-1 .48L2 8.73a1 1 0 0 0 .1 1.17l1.27 1.44a1 1 0 0 1 0 1.32L2.1 14.1a1 1 0 0 0-.1 1.17l2 3.46a1 1 0 0 0 1.07.48l1.88-.38a1 1 0 0 1 1.15.66l.61 1.83a1 1 0 0 0 1 .68h4a1 1 0 0 0 .95-.68l.61-1.83a1 1 0 0 1 1.15-.66l1.88.38a1 1 0 0 0 1.07-.48l2-3.46a1 1 0 0 0-.12-1.17ZM18.41 14l.8.9l-1.28 2.22l-1.18-.24a3 3 0 0 0-3.45 2L12.92 20h-2.56L10 18.86a3 3 0 0 0-3.45-2l-1.18.24l-1.3-2.21l.8-.9a3 3 0 0 0 0-4l-.8-.9l1.28-2.2l1.18.24a3 3 0 0 0 3.45-2L10.36 4h2.56l.38 1.14a3 3 0 0 0 3.45 2l1.18-.24l1.28 2.22l-.8.9a3 3 0 0 0 0 3.98Zm-6.77-6a4 4 0 1 0 4 4a4 4 0 0 0-4-4Zm0 6a2 2 0 1 1 2-2a2 2 0 0 1-2 2Z"/>
    </svg>
    <svg id="graph-bar" xmlns="http://www.w3.org/2000/svg" width="24" height="24" viewBox="0 0 24 24">
      <path fill="currentColor" d="M6 13H2a1 1 0 0 0-1 1v8a1 1 0 0 0 1 1h4a1 1 0 0 0 1-1v-8a1 1 0 0 0-1-1Zm-1 8H3v-6h2ZM22 9h-4a1 1 0 0 0-1 1v12a1 1 0 0 0 1 1h4a1 1 0 0 0 1-1V10a1 1 0 0 0-1-1Zm-1 12h-2V11h2ZM14 1h-4a1 1 0 0 0-1 1v20a1 1 0 0 0 1 1h4a1 1 0 0 0 1-1V2a1 1 0 0 0-1-1Zm-1 20h-2V3h2Z"/>
    </svg>
    <svg id="action" xmlns="http://www.w3.org/2000/svg" width="20" height="20" viewBox="0 0 20 20">
      <g clip-path="url(#clip0_1086_555)">
        <path stroke="currentColor" fill="none" d="M0.833374 19.1668L3.33337 16.6668M3.33337 16.6668C6.66671 20.0727 9.16671 18.3335 10.8334 16.6668L11.6667 15.8335L4.16671 8.3335L3.33337 9.16683C1.66671 10.8335 4.07696e-05 13.261 3.33337 16.6668ZM16.6667 3.3335L19.1667 0.833496M16.6667 3.3335C20.0442 6.66683 18.3334 9.16683 16.6667 10.8335L15.8334 11.6668L8.33337 4.16683L9.16671 3.3335C10.8334 1.66683 13.2892 0.00016284 16.6667 3.3335ZM7.50004 9.16683L10 6.66683M10.8334 12.5002L13.3334 10.0002" stroke-width="2"/>
      </g>
      <defs>
        <clipPath id="clip0_1086_555">
          <rect width="20" height="20" fill="none"/>
        </clipPath>
      </defs>
    </svg>
    <svg id="shield-person" xmlns="http://www.w3.org/2000/svg" width="20" height="20" viewBox="0 0 20 20">
      <path fill="currentColor" d="M10 10.8332C9.1806 10.8332 8.48949 10.5521 7.92671 9.98984C7.36393 9.42762 7.08282 8.7365 7.08337 7.9165C7.08337 7.09706 7.36449 6.40595 7.92671 5.84317C8.48893 5.28039 9.18004 4.99928 10 4.99984C10.8195 4.99984 11.5106 5.28095 12.0734 5.84317C12.6362 6.40539 12.9173 7.0965 12.9167 7.9165C12.9167 8.73595 12.6356 9.42706 12.0734 9.98984C11.5112 10.5526 10.82 10.8337 10 10.8332ZM10 9.1665C10.3612 9.1665 10.6598 9.04845 10.8959 8.81234C11.132 8.57623 11.25 8.27762 11.25 7.9165C11.25 7.55539 11.132 7.25678 10.8959 7.02067C10.6598 6.78456 10.3612 6.6665 10 6.6665C9.63893 6.6665 9.34032 6.78456 9.10421 7.02067C8.8681 7.25678 8.75004 7.55539 8.75004 7.9165C8.75004 8.27762 8.8681 8.57623 9.10421 8.81234C9.34032 9.04845 9.63893 9.1665 10 9.1665ZM10 18.3332C8.06949 17.8471 6.4756 16.7393 5.21837 15.0098C3.96115 13.2804 3.33282 11.3604 3.33337 9.24984V4.1665L10 1.6665L16.6667 4.1665V9.24984C16.6667 11.3609 16.0381 13.2812 14.7809 15.0107C13.5237 16.7401 11.93 17.8476 10 18.3332ZM10 3.43734L5.00004 5.31234V9.24984C5.00004 9.99984 5.10421 10.729 5.31254 11.4373C5.52087 12.1457 5.8056 12.8123 6.16671 13.4373C6.75004 13.1457 7.36115 12.9165 8.00004 12.7498C8.63893 12.5832 9.3056 12.4998 10 12.4998C10.6945 12.4998 11.3612 12.5832 12 12.7498C12.6389 12.9165 13.25 13.1457 13.8334 13.4373C14.1945 12.8123 14.4792 12.1457 14.6875 11.4373C14.8959 10.729 15 9.99984 15 9.24984V5.31234L10 3.43734ZM10 14.1665C9.50004 14.1665 9.01393 14.2221 8.54171 14.3332C8.06949 14.4443 7.6181 14.5971 7.18754 14.7915C7.59032 15.2082 8.02782 15.5693 8.50004 15.8748C8.97226 16.1804 9.47226 16.4165 10 16.5832C10.5278 16.4165 11.0278 16.1804 11.5 15.8748C11.9723 15.5693 12.4098 15.2082 12.8125 14.7915C12.382 14.5971 11.9306 14.4443 11.4584 14.3332C10.9862 14.2221 10.5 14.1665 10 14.1665Z" />
    </svg>
    <svg id="shake-hands-line" xmlns="http://www.w3.org/2000/svg" width="20" height="20" viewBox="0 0 20 20">
      <path fill="currentColor" d="M9.88413 1.99186C10.2874 1.72316 10.76 1.57743 11.2445 1.5724C11.729 1.56737 12.2046 1.70326 12.6133 1.96353L16.075 4.16686H17.5C17.721 4.16686 17.9329 4.25466 18.0892 4.41094C18.2455 4.56722 18.3333 4.77918 18.3333 5.00019V12.5002C18.3333 12.7212 18.2455 12.9332 18.0892 13.0894C17.9329 13.2457 17.721 13.3335 17.5 13.3335H16.2333C16.26 13.7393 16.1742 14.1446 15.9852 14.5047C15.7963 14.8648 15.5116 15.1658 15.1625 15.3744L10.9183 17.921C10.6575 18.0774 10.3589 18.1594 10.0549 18.1582C9.7508 18.157 9.45286 18.0727 9.19329 17.9144C8.90093 18.1727 8.52721 18.3203 8.13723 18.3314C7.74725 18.3425 7.36573 18.2164 7.05913 17.9752L2.77579 14.6094C2.47651 14.3743 2.26661 14.044 2.18097 13.6732C2.09532 13.3024 2.13907 12.9135 2.30496 12.571C2.10597 12.415 1.94508 12.2158 1.83449 11.9884C1.72389 11.761 1.66649 11.5114 1.66663 11.2585V5.00019C1.66663 4.77918 1.75442 4.56722 1.9107 4.41094C2.06698 4.25466 2.27895 4.16686 2.49996 4.16686H6.62246L9.88413 1.99186ZM3.47746 11.3719L4.05413 10.8677C4.54694 10.4366 5.18922 10.2161 5.84291 10.2535C6.49659 10.2909 7.10952 10.5832 7.54996 11.0677L9.80163 13.5444C10.1547 13.9328 10.3766 14.4224 10.4359 14.944C10.4951 15.4655 10.3886 15.9925 10.1316 16.4502L14.305 13.946C14.4143 13.8805 14.4973 13.7789 14.5398 13.6587C14.5822 13.5386 14.5814 13.4073 14.5375 13.2877L10.8483 8.12269C10.7473 7.98114 10.6045 7.87473 10.44 7.8184C10.2754 7.76206 10.0974 7.75861 9.93079 7.80853L7.85913 8.42936C7.4268 8.55903 6.96743 8.56924 6.52977 8.45891C6.09211 8.34858 5.69248 8.12182 5.37329 7.80269L5.12913 7.55936C4.90742 7.3381 4.75265 7.05876 4.68263 6.75346C4.61261 6.44815 4.63017 6.12929 4.73329 5.83353H3.33329V11.2585L3.47746 11.3719ZM11.7191 3.37019C11.5827 3.28329 11.424 3.23796 11.2622 3.23973C11.1005 3.24151 10.9428 3.29031 10.8083 3.38019L6.30829 6.38019L6.55163 6.62436C6.65813 6.73074 6.79146 6.80628 6.93746 6.84296C7.08345 6.87964 7.23665 6.87609 7.38079 6.83269L9.45163 6.21186C9.95132 6.06202 10.4854 6.07224 10.9789 6.24111C11.4725 6.40997 11.9009 6.72901 12.2041 7.15353L15.4291 11.6669H16.6666V5.83353H16.0758C15.7587 5.83348 15.4482 5.743 15.1808 5.57269L11.7183 3.36936L11.7191 3.37019ZM5.15079 12.121L3.80413 13.2994L8.08746 16.6652L8.67496 15.6385C8.76225 15.4856 8.79887 15.309 8.77956 15.134C8.76025 14.959 8.686 14.7946 8.56746 14.6644L6.31663 12.1877C6.16982 12.0263 5.96557 11.9289 5.74774 11.9164C5.52991 11.904 5.31505 11.9774 5.15079 12.121Z"/>
    </svg>
    <svg id="buildings-bold" xmlns="http://www.w3.org/2000/svg" width="20" height="20" viewBox="0 0 20 20">
      <path fill="currentColor" d="M18.75 15.9374H17.8125V7.49992C17.8125 7.08552 17.6479 6.68809 17.3549 6.39507C17.0618 6.10204 16.6644 5.93742 16.25 5.93742H13.4375V2.49992C13.4374 2.23726 13.3711 1.97887 13.2447 1.74862C13.1183 1.51837 12.9359 1.32369 12.7144 1.18259C12.4928 1.04149 12.2393 0.958515 11.9772 0.941335C11.7151 0.924154 11.4529 0.973323 11.2148 1.0843L3.08984 4.87648C2.82055 5.00264 2.59271 5.20281 2.43293 5.45362C2.27315 5.70442 2.18803 5.99551 2.1875 6.29289V15.9374H1.25C1.00136 15.9374 0.762903 16.0362 0.587087 16.212C0.411272 16.3878 0.3125 16.6263 0.3125 16.8749C0.3125 17.1236 0.411272 17.362 0.587087 17.5378C0.762903 17.7136 1.00136 17.8124 1.25 17.8124H18.75C18.9986 17.8124 19.2371 17.7136 19.4129 17.5378C19.5887 17.362 19.6875 17.1236 19.6875 16.8749C19.6875 16.6263 19.5887 16.3878 19.4129 16.212C19.2371 16.0362 18.9986 15.9374 18.75 15.9374ZM15.9375 7.81242V15.9374H13.4375V7.81242H15.9375ZM4.0625 6.49133L11.5625 2.99211V15.9374H4.0625V6.49133ZM10.3125 8.74992V9.68742C10.3125 9.93606 10.2137 10.1745 10.0379 10.3503C9.8621 10.5261 9.62364 10.6249 9.375 10.6249C9.12636 10.6249 8.8879 10.5261 8.71209 10.3503C8.53627 10.1745 8.4375 9.93606 8.4375 9.68742V8.74992C8.4375 8.50128 8.53627 8.26282 8.71209 8.08701C8.8879 7.91119 9.12636 7.81242 9.375 7.81242C9.62364 7.81242 9.8621 7.91119 10.0379 8.08701C10.2137 8.26282 10.3125 8.50128 10.3125 8.74992ZM7.1875 8.74992V9.68742C7.1875 9.93606 7.08873 10.1745 6.91291 10.3503C6.7371 10.5261 6.49864 10.6249 6.25 10.6249C6.00136 10.6249 5.7629 10.5261 5.58709 10.3503C5.41127 10.1745 5.3125 9.93606 5.3125 9.68742V8.74992C5.3125 8.50128 5.41127 8.26282 5.58709 8.08701C5.7629 7.91119 6.00136 7.81242 6.25 7.81242C6.49864 7.81242 6.7371 7.91119 6.91291 8.08701C7.08873 8.26282 7.1875 8.50128 7.1875 8.74992ZM7.1875 12.8124V13.7499C7.1875 13.9986 7.08873 14.237 6.91291 14.4128C6.7371 14.5886 6.49864 14.6874 6.25 14.6874C6.00136 14.6874 5.7629 14.5886 5.58709 14.4128C5.41127 14.237 5.3125 13.9986 5.3125 13.7499V12.8124C5.3125 12.5638 5.41127 12.3253 5.58709 12.1495C5.7629 11.9737 6.00136 11.8749 6.25 11.8749C6.49864 11.8749 6.7371 11.9737 6.91291 12.1495C7.08873 12.3253 7.1875 12.5638 7.1875 12.8124ZM10.3125 12.8124V13.7499C10.3125 13.9986 10.2137 14.237 10.0379 14.4128C9.8621 14.5886 9.62364 14.6874 9.375 14.6874C9.12636 14.6874 8.8879 14.5886 8.71209 14.4128C8.53627 14.237 8.4375 13.9986 8.4375 13.7499V12.8124C8.4375 12.5638 8.53627 12.3253 8.71209 12.1495C8.8879 11.9737 9.12636 11.8749 9.375 11.8749C9.62364 11.8749 9.8621 11.9737 10.0379 12.1495C10.2137 12.3253 10.3125 12.5638 10.3125 12.8124Z" />
    </svg>
    <svg id="menu-round" xmlns="http://www.w3.org/2000/svg" width="20" height="20" viewBox="0 0 20 20" fill="none">
      <path fill="currentColor" d="M6.66659 5.81885C6.44557 5.81885 6.23361 5.90665 6.07733 6.06293C5.92105 6.21921 5.83325 6.43117 5.83325 6.65218C5.83325 6.87319 5.92105 7.08516 6.07733 7.24144C6.23361 7.39772 6.44557 7.48551 6.66659 7.48551H13.3333C13.5543 7.48551 13.7662 7.39772 13.9225 7.24144C14.0788 7.08516 14.1666 6.87319 14.1666 6.65218C14.1666 6.43117 14.0788 6.21921 13.9225 6.06293C13.7662 5.90665 13.5543 5.81885 13.3333 5.81885H6.66659ZM5.83325 9.99968C5.83325 9.77867 5.92105 9.56671 6.07733 9.41043C6.23361 9.25415 6.44557 9.16635 6.66659 9.16635H13.3333C13.5543 9.16635 13.7662 9.25415 13.9225 9.41043C14.0788 9.56671 14.1666 9.77867 14.1666 9.99968C14.1666 10.2207 14.0788 10.4327 13.9225 10.5889C13.7662 10.7452 13.5543 10.833 13.3333 10.833H6.66659C6.44557 10.833 6.23361 10.7452 6.07733 10.5889C5.92105 10.4327 5.83325 10.2207 5.83325 9.99968ZM6.66659 12.5138C6.44557 12.5138 6.23361 12.6016 6.07733 12.7579C5.92105 12.9142 5.83325 13.1262 5.83325 13.3472C5.83325 13.5682 5.92105 13.7802 6.07733 13.9364C6.23361 14.0927 6.44557 14.1805 6.66659 14.1805H13.3333C13.5543 14.1805 13.7662 14.0927 13.9225 13.9364C14.0788 13.7802 14.1666 13.5682 14.1666 13.3472C14.1666 13.1262 14.0788 12.9142 13.9225 12.7579C13.7662 12.6016 13.5543 12.5138 13.3333 12.5138H6.66659Z" />
      <path fill="currentColor" fill-rule="evenodd" clip-rule="evenodd" d="M18.3333 9.99984C18.3333 14.6023 14.6025 18.3332 9.99996 18.3332C5.39746 18.3332 1.66663 14.6023 1.66663 9.99984C1.66663 5.39734 5.39746 1.6665 9.99996 1.6665C14.6025 1.6665 18.3333 5.39734 18.3333 9.99984ZM16.6666 9.99984C16.6666 11.7679 15.9642 13.4636 14.714 14.7139C13.4638 15.9641 11.7681 16.6665 9.99996 16.6665C8.23185 16.6665 6.53616 15.9641 5.28591 14.7139C4.03567 13.4636 3.33329 11.7679 3.33329 9.99984C3.33329 8.23173 4.03567 6.53604 5.28591 5.28579C6.53616 4.03555 8.23185 3.33317 9.99996 3.33317C11.7681 3.33317 13.4638 4.03555 14.714 5.28579C15.9642 6.53604 16.6666 8.23173 16.6666 9.99984Z" />
    </svg>
    <svg id="pig-money" xmlns="http://www.w3.org/2000/svg" width="20" height="20" viewBox="0 0 20 20" fill="none">
      <path stroke="currentColor" d="M12.5001 9.1667V9.17504M4.31089 6.9817C3.94539 6.70079 3.66468 6.32429 3.49978 5.89381C3.33488 5.46333 3.29221 4.99564 3.37649 4.54243C3.46077 4.08922 3.66872 3.66814 3.97735 3.32572C4.28599 2.98331 4.68329 2.73289 5.12534 2.60216C5.56739 2.47142 6.03699 2.46546 6.48222 2.58492C6.92745 2.70438 7.33099 2.94462 7.64822 3.27908C7.96545 3.61354 8.18403 4.02921 8.2798 4.48013C8.37557 4.93105 8.3448 5.39967 8.19089 5.8342" stroke-width="2" stroke-linecap="round" stroke-linejoin="round"/>
      <path stroke="currentColor" d="M13.3334 3.3335V6.50266C14.3647 7.09943 15.1499 8.04387 15.5484 9.16683H16.6659C16.8869 9.16683 17.0989 9.25463 17.2551 9.41091C17.4114 9.56719 17.4992 9.77915 17.4992 10.0002V11.6668C17.4992 11.8878 17.4114 12.0998 17.2551 12.2561C17.0989 12.4124 16.8869 12.5002 16.6659 12.5002H15.5476C15.2676 13.2918 14.7917 14.0002 14.1659 14.561V16.2502C14.1659 16.5817 14.0342 16.8996 13.7998 17.134C13.5653 17.3685 13.2474 17.5002 12.9159 17.5002C12.5844 17.5002 12.2664 17.3685 12.032 17.134C11.7976 16.8996 11.6659 16.5817 11.6659 16.2502V15.7643C11.3905 15.8105 11.1118 15.8336 10.8326 15.8335H7.49922C7.22 15.8336 6.94126 15.8105 6.66589 15.7643V16.2502C6.66589 16.5817 6.53419 16.8996 6.29977 17.134C6.06535 17.3685 5.74741 17.5002 5.41589 17.5002C5.08437 17.5002 4.76642 17.3685 4.532 17.134C4.29758 16.8996 4.16589 16.5817 4.16589 16.2502V14.561C3.41085 13.886 2.87862 12.9976 2.63962 12.0134C2.40063 11.0292 2.46615 9.99564 2.8275 9.04951C3.18886 8.10339 3.82902 7.2893 4.66325 6.71502C5.49748 6.14074 6.48643 5.83333 7.49922 5.8335H9.58255L13.3326 3.3335H13.3334Z" stroke-width="2" stroke-linecap="round" stroke-linejoin="round"/>
    </svg>
    <svg id="profile" xmlns="http://www.w3.org/2000/svg" width="20" height="20" viewBox="0 0 20 20" fill="none">
      <path fill="currentColor" d="M16.875 0H1.875C0.84375 0 0 0.84375 0 1.875V18.125C0 19.1562 0.84375 20 1.875 20H16.875C17.9062 20 18.75 19.1562 18.75 18.125V1.875C18.75 0.84375 17.9062 0 16.875 0ZM16.25 17.5H2.5V2.5H16.25V17.5ZM5 11.25H13.75V12.5H5V11.25ZM5 13.75H13.75V15H5V13.75ZM6.25 5.625C6.25008 5.37869 6.29868 5.13481 6.39301 4.90728C6.48735 4.67975 6.62557 4.47303 6.7998 4.29892C6.97403 4.12481 7.18084 3.98672 7.40843 3.89253C7.63602 3.79835 7.87994 3.74992 8.12625 3.75C8.37256 3.75008 8.61644 3.79868 8.84397 3.89301C9.0715 3.98735 9.27822 4.12557 9.45233 4.2998C9.62644 4.47403 9.76453 4.68084 9.85872 4.90843C9.9529 5.13602 10.0013 5.37994 10.0013 5.62625C10.0011 6.1237 9.80332 6.6007 9.45145 6.95233C9.09958 7.30396 8.62245 7.50142 8.125 7.50125C7.62755 7.50108 7.15055 7.30332 6.79892 6.95145C6.44729 6.59959 6.24983 6.12245 6.25 5.625ZM9.375 7.5H6.875C5.84375 7.5 5 8.0625 5 8.75V10H11.25V8.75C11.25 8.0625 10.4062 7.5 9.375 7.5Z" />
    </svg>
    <svg id="moon" xmlns="http://www.w3.org/2000/svg" width="17" height="17" viewBox="0 0 17 17" fill="none">
      <path d="M15.6414 9.97483C15.2123 11.3753 14.3526 12.6048 13.1843 13.4884C12.1587 14.2603 10.9381 14.7311 9.65977 14.848C8.3814 14.9648 7.09576 14.723 5.94717 14.1497C4.79857 13.5765 3.83249 12.6944 3.15734 11.6026C2.4822 10.5108 2.12472 9.2524 2.12503 7.9687C2.12042 6.47035 2.60751 5.01186 3.5116 3.81698C4.39516 2.64876 5.62466 1.78896 7.02515 1.35995C7.11745 1.33153 7.21576 1.32881 7.30949 1.35208C7.40323 1.37535 7.48884 1.42373 7.55714 1.49203C7.62543 1.56032 7.67381 1.64594 7.69708 1.73967C7.72036 1.8334 7.71763 1.93171 7.68921 2.02401C7.38297 3.03699 7.3573 4.11408 7.61492 5.1405C7.87254 6.16692 8.40381 7.10422 9.15211 7.85252C9.90041 8.60083 10.8377 9.13209 11.8641 9.38971C12.8906 9.64733 13.9676 9.62166 14.9806 9.31542C15.0729 9.287 15.1712 9.28428 15.265 9.30755C15.3587 9.33082 15.4443 9.3792 15.5126 9.44749C15.5809 9.51579 15.6293 9.6014 15.6526 9.69514C15.6758 9.78887 15.6731 9.88718 15.6447 9.97948L15.6414 9.97483Z" fill="currentColor"/>
    </svg>
    <svg id="sun" xmlns="http://www.w3.org/2000/svg" width="19" height="19" viewBox="0 0 19 19" fill="none">
      <g clip-path="url(#clip0_1648_725)">
        <path d="M9.49977 15.0418C9.70974 15.0418 9.9111 15.1252 10.0596 15.2737C10.208 15.4222 10.2914 15.6235 10.2914 15.8335V16.6252C10.2914 16.8351 10.208 17.0365 10.0596 17.185C9.9111 17.3334 9.70974 17.4168 9.49977 17.4168C9.28981 17.4168 9.08845 17.3334 8.93998 17.185C8.79151 17.0365 8.70811 16.8351 8.70811 16.6252V15.8335C8.70811 15.6235 8.79151 15.4222 8.93998 15.2737C9.08845 15.1252 9.28981 15.0418 9.49977 15.0418ZM14.5379 13.4189L15.0976 13.9786C15.2419 14.1279 15.3217 14.3279 15.3198 14.5355C15.318 14.7431 15.2348 14.9416 15.088 15.0884C14.9412 15.2352 14.7427 15.3184 14.5351 15.3202C14.3275 15.322 14.1275 15.2422 13.9782 15.098L13.4185 14.5383C13.2743 14.389 13.1945 14.189 13.1963 13.9815C13.1981 13.7739 13.2814 13.5753 13.4282 13.4286C13.5749 13.2818 13.7735 13.1985 13.9811 13.1967C14.1887 13.1949 14.3886 13.2747 14.5379 13.4189ZM4.46161 13.4189C4.60407 13.2769 4.79524 13.1945 4.99629 13.1884C5.19733 13.1822 5.39317 13.2528 5.54404 13.3859C5.6949 13.5189 5.78947 13.7044 5.80855 13.9046C5.82762 14.1048 5.76977 14.3048 5.64673 14.4639L5.58102 14.5383L5.02132 15.098C4.87885 15.24 4.68768 15.3225 4.48664 15.3286C4.28559 15.3347 4.08975 15.2641 3.93889 15.1311C3.78802 14.9981 3.69345 14.8126 3.67437 14.6124C3.6553 14.4121 3.71316 14.2122 3.83619 14.053L3.9019 13.9786L4.46161 13.4189ZM9.49977 4.75016C10.7596 4.75016 11.9677 5.25061 12.8585 6.14141C13.7493 7.0322 14.2498 8.24039 14.2498 9.50016C14.2498 10.7599 13.7493 11.9681 12.8585 12.8589C11.9677 13.7497 10.7596 14.2502 9.49977 14.2502C8.24 14.2502 7.03182 13.7497 6.14102 12.8589C5.25022 11.9681 4.74977 10.7599 4.74977 9.50016C4.74977 8.24039 5.25022 7.0322 6.14102 6.14141C7.03182 5.25061 8.24 4.75016 9.49977 4.75016ZM3.16644 8.7085C3.36822 8.70872 3.5623 8.78598 3.70902 8.9245C3.85575 9.06302 3.94404 9.25233 3.95587 9.45377C3.96769 9.6552 3.90216 9.85355 3.77265 10.0083C3.64314 10.163 3.45943 10.2625 3.25907 10.2863L3.16644 10.2918H2.37477C2.17299 10.2916 1.97892 10.2143 1.83219 10.0758C1.68547 9.93731 1.59717 9.74799 1.58535 9.54656C1.57352 9.34513 1.63906 9.14678 1.76857 8.99205C1.89808 8.83731 2.08178 8.73787 2.28215 8.71404L2.37477 8.7085H3.16644ZM16.6248 8.7085C16.8347 8.7085 17.0361 8.7919 17.1846 8.94037C17.333 9.08884 17.4164 9.2902 17.4164 9.50016C17.4164 9.71013 17.333 9.91149 17.1846 10.06C17.0361 10.2084 16.8347 10.2918 16.6248 10.2918H15.8331C15.6231 10.2918 15.4218 10.2084 15.2733 10.06C15.1248 9.91149 15.0414 9.71013 15.0414 9.50016C15.0414 9.2902 15.1248 9.08884 15.2733 8.94037C15.4218 8.7919 15.6231 8.7085 15.8331 8.7085H16.6248ZM3.9019 3.90229C4.03822 3.76598 4.21959 3.6841 4.41198 3.672C4.60438 3.6599 4.79458 3.71842 4.9469 3.83658L5.02132 3.90229L5.58102 4.462C5.72301 4.60446 5.80544 4.79563 5.81158 4.99668C5.81772 5.19772 5.7471 5.39356 5.61408 5.54443C5.48105 5.69529 5.29559 5.78986 5.09536 5.80894C4.89513 5.82801 4.69514 5.77016 4.53602 5.64712L4.46161 5.58141L3.9019 5.0217C3.75348 4.87325 3.67011 4.67192 3.67011 4.462C3.67011 4.25207 3.75348 4.05075 3.9019 3.90229ZM15.0976 3.90229C15.2461 4.05075 15.3294 4.25207 15.3294 4.462C15.3294 4.67192 15.2461 4.87325 15.0976 5.0217L14.5379 5.58141C14.4649 5.65703 14.3776 5.71734 14.281 5.75883C14.1844 5.80032 14.0805 5.82216 13.9754 5.82307C13.8703 5.82398 13.766 5.80395 13.6687 5.76415C13.5714 5.72434 13.483 5.66556 13.4087 5.59123C13.3344 5.51689 13.2756 5.4285 13.2358 5.33121C13.196 5.23392 13.176 5.12967 13.1769 5.02455C13.1778 4.91944 13.1996 4.81555 13.2411 4.71897C13.2826 4.62238 13.3429 4.53503 13.4185 4.462L13.9782 3.90229C14.1267 3.75387 14.328 3.6705 14.5379 3.6705C14.7479 3.6705 14.9492 3.75387 15.0976 3.90229ZM9.49977 1.5835C9.70974 1.5835 9.9111 1.6669 10.0596 1.81537C10.208 1.96384 10.2914 2.1652 10.2914 2.37516V3.16683C10.2914 3.37679 10.208 3.57816 10.0596 3.72662C9.9111 3.87509 9.70974 3.9585 9.49977 3.9585C9.28981 3.9585 9.08845 3.87509 8.93998 3.72662C8.79151 3.57816 8.70811 3.37679 8.70811 3.16683V2.37516C8.70811 2.1652 8.79151 1.96384 8.93998 1.81537C9.08845 1.6669 9.28981 1.5835 9.49977 1.5835Z" fill="currentColor"/>
      </g>
      <defs>
        <clipPath id="clip0_1648_725">
          <rect width="19" height="19" fill="currentColor"/>
        </clipPath>
      </defs>
    </svg>
    <svg id="edit-sharp" xmlns="http://www.w3.org/2000/svg" width="20" height="20" viewBox="0 0 20 20" fill="none">
      <path d="M16.0833 7.43742L12.5417 3.93742L14.8958 1.58325L18.4167 5.10409L16.0833 7.43742ZM2.5 17.4999V13.9583L11.3333 5.12492L14.875 8.66658L6.04167 17.4999H2.5Z" fill="currentColor"/>
    </svg>
    <svg id="notification" xmlns="http://www.w3.org/2000/svg" width="20" height="20" viewBox="0 0 20 20" fill="none">
      <path d="M5.00065 15.8333V8.33325C5.00065 7.00717 5.52744 5.7354 6.46512 4.79772C7.4028 3.86004 8.67457 3.33325 10.0007 3.33325C11.3267 3.33325 12.5985 3.86004 13.5362 4.79772C14.4739 5.7354 15.0007 7.00717 15.0007 8.33325V15.8333M5.00065 15.8333H15.0007M5.00065 15.8333H3.33398M15.0007 15.8333H16.6673M9.16732 18.3333H10.834" stroke="currentColor" stroke-width="2" stroke-linecap="round" stroke-linejoin="round"/>
    </svg>
    <svg id="secure-outline" xmlns="http://www.w3.org/2000/svg" width="20" height="20" viewBox="0 0 20 20" fill="none">
      <path d="M10.0007 14.1666C9.55862 14.1666 9.1347 13.991 8.82214 13.6784C8.50958 13.3659 8.33398 12.9419 8.33398 12.4999C8.33398 11.5749 9.07565 10.8333 10.0007 10.8333C10.4427 10.8333 10.8666 11.0088 11.1792 11.3214C11.4917 11.634 11.6673 12.0579 11.6673 12.4999C11.6673 12.9419 11.4917 13.3659 11.1792 13.6784C10.8666 13.991 10.4427 14.1666 10.0007 14.1666ZM15.0007 16.6666V8.33325H5.00065V16.6666H15.0007ZM15.0007 6.66658C15.4427 6.66658 15.8666 6.84218 16.1792 7.15474C16.4917 7.4673 16.6673 7.89122 16.6673 8.33325V16.6666C16.6673 17.1086 16.4917 17.5325 16.1792 17.8451C15.8666 18.1577 15.4427 18.3333 15.0007 18.3333H5.00065C4.55862 18.3333 4.1347 18.1577 3.82214 17.8451C3.50958 17.5325 3.33398 17.1086 3.33398 16.6666V8.33325C3.33398 7.40825 4.07565 6.66658 5.00065 6.66658H5.83398V4.99992C5.83398 3.89485 6.27297 2.83504 7.05437 2.05364C7.83577 1.27224 8.89558 0.833252 10.0007 0.833252C10.5478 0.833252 11.0896 0.941026 11.5952 1.15042C12.1007 1.35982 12.56 1.66673 12.9469 2.05364C13.3338 2.44055 13.6408 2.89988 13.8501 3.4054C14.0595 3.91093 14.1673 4.45274 14.1673 4.99992V6.66658H15.0007ZM10.0007 2.49992C9.33761 2.49992 8.70172 2.76331 8.23288 3.23215C7.76404 3.70099 7.50065 4.33688 7.50065 4.99992V6.66658H12.5007V4.99992C12.5007 4.33688 12.2373 3.70099 11.7684 3.23215C11.2996 2.76331 10.6637 2.49992 10.0007 2.49992Z" fill="currentColor"/>
    </svg>
    <svg id="appearance" xmlns="http://www.w3.org/2000/svg" width="20" height="20" viewBox="0 0 20 20" fill="none">
      <g clip-path="url(#clip0_1921_657)">
        <path fill-rule="evenodd" clip-rule="evenodd" d="M18.1118 10.4849L18.1106 10.4924C18.1014 10.5059 18.09 10.5177 18.0768 10.5274C17.9812 10.5971 17.8651 10.6332 17.7468 10.6299H13.7643C9.86683 10.6299 7.91432 15.3424 10.6693 18.0974C9.01875 18.2338 7.36591 17.8626 5.93223 17.0334C4.49855 16.2042 3.3525 14.9567 2.64763 13.458C1.94276 11.9593 1.71273 10.2809 1.98837 8.64783C2.264 7.01473 3.03212 5.50486 4.18983 4.32051C5.34754 3.13615 6.83955 2.33388 8.46596 2.02117C10.0924 1.70846 11.7755 1.90025 13.2899 2.57084C14.8042 3.24143 16.0775 4.3588 16.9391 5.77325C17.8007 7.1877 18.2094 8.83167 18.1106 10.4849H18.1118ZM17.7468 12.5049C18.8881 12.5049 19.9168 11.7324 19.9843 10.5937C20.1063 8.54322 19.5938 6.50496 18.5167 4.75598C17.4395 3.007 15.8499 1.63216 13.9639 0.818344C12.0779 0.00453129 9.98711 -0.208764 7.97565 0.207455C5.96419 0.623673 4.1297 1.64921 2.72157 3.14466C1.31343 4.6401 0.399966 6.53289 0.105355 8.56573C-0.189256 10.5986 0.149279 12.6728 1.07494 14.5065C2.0006 16.3401 3.46847 17.8443 5.27901 18.8144C7.08955 19.7845 9.15491 20.1736 11.1943 19.9287C12.7481 19.7449 13.1031 17.8799 11.9956 16.7724C10.4206 15.1974 11.5368 12.5049 13.7643 12.5049H17.7468ZM12.5006 6.24991C12.5006 6.58144 12.3689 6.89938 12.1345 7.1338C11.9 7.36822 11.5821 7.49991 11.2506 7.49991C10.9191 7.49991 10.6011 7.36822 10.3667 7.1338C10.1323 6.89938 10.0006 6.58144 10.0006 6.24991C10.0006 5.91839 10.1323 5.60045 10.3667 5.36603C10.6011 5.13161 10.9191 4.99991 11.2506 4.99991C11.5821 4.99991 11.9 5.13161 12.1345 5.36603C12.3689 5.60045 12.5006 5.91839 12.5006 6.24991ZM7.50058 8.74992C7.8321 8.74992 8.15004 8.61822 8.38446 8.3838C8.61888 8.14938 8.75058 7.83144 8.75058 7.49991C8.75058 7.16839 8.61888 6.85045 8.38446 6.61603C8.15004 6.38161 7.8321 6.24991 7.50058 6.24991C7.16905 6.24991 6.85111 6.38161 6.61669 6.61603C6.38227 6.85045 6.25058 7.16839 6.25058 7.49991C6.25058 7.83144 6.38227 8.14938 6.61669 8.3838C6.85111 8.61822 7.16905 8.74992 7.50058 8.74992ZM7.50058 11.2499C7.50058 11.5814 7.36888 11.8994 7.13446 12.1338C6.90004 12.3682 6.5821 12.4999 6.25058 12.4999C5.91905 12.4999 5.60111 12.3682 5.36669 12.1338C5.13227 11.8994 5.00058 11.5814 5.00058 11.2499C5.00058 10.9184 5.13227 10.6005 5.36669 10.366C5.60111 10.1316 5.91905 9.99992 6.25058 9.99992C6.5821 9.99992 6.90004 10.1316 7.13446 10.366C7.36888 10.6005 7.50058 10.9184 7.50058 11.2499Z" fill="currentColor"/>
      </g>
      <defs>
        <clipPath id="clip0_1921_657">
          <rect width="20" height="20" fill="white"/>
        </clipPath>
      </defs>
    </svg>
    <svg id="help" xmlns="http://www.w3.org/2000/svg" width="20" height="20" viewBox="0 0 20 20" fill="none">
      <path d="M10 14.1667V14.175M2.5 10C2.5 10.9849 2.69399 11.9602 3.0709 12.8701C3.44781 13.7801 4.00026 14.6069 4.6967 15.3033C5.39314 15.9997 6.21993 16.5522 7.12987 16.9291C8.03982 17.306 9.01509 17.5 10 17.5C10.9849 17.5 11.9602 17.306 12.8701 16.9291C13.7801 16.5522 14.6069 15.9997 15.3033 15.3033C15.9997 14.6069 16.5522 13.7801 16.9291 12.8701C17.306 11.9602 17.5 10.9849 17.5 10C17.5 9.01509 17.306 8.03982 16.9291 7.12987C16.5522 6.21993 15.9997 5.39314 15.3033 4.6967C14.6069 4.00026 13.7801 3.44781 12.8701 3.0709C11.9602 2.69399 10.9849 2.5 10 2.5C9.01509 2.5 8.03982 2.69399 7.12987 3.0709C6.21993 3.44781 5.39314 4.00026 4.6967 4.6967C4.00026 5.39314 3.44781 6.21993 3.0709 7.12987C2.69399 8.03982 2.5 9.01509 2.5 10Z" stroke="currentColor" stroke-width="2" stroke-linecap="round" stroke-linejoin="round"/>
      <path d="M10.0007 11.25C9.98531 10.9795 10.0583 10.7113 10.2086 10.4858C10.3589 10.2604 10.5784 10.0899 10.834 9.99998C11.1472 9.88019 11.4284 9.68934 11.6553 9.44244C11.8822 9.19554 12.0487 8.89933 12.1418 8.57713C12.2348 8.25494 12.2517 7.91555 12.1913 7.5857C12.1308 7.25584 11.9946 6.94452 11.7934 6.67624C11.5922 6.40796 11.3315 6.19005 11.0317 6.03966C10.732 5.88927 10.4014 5.81051 10.0661 5.80958C9.73074 5.80865 9.39975 5.88557 9.09919 6.0343C8.79862 6.18302 8.53668 6.39948 8.33398 6.66664" stroke="currentColor" stroke-width="2" stroke-linecap="round" stroke-linejoin="round"/>
    </svg>
  </defs>
</svg>
